<svg xmlns="http://www.w3.org/2000/svg" viewBox="0 0 500 500">
  <!-- Elegant dark background -->
  <rect width="500" height="500" fill="#080810" />
  <defs>
    <!-- Premium gradients -->
    <linearGradient id="premium-gradient" x1="0%" y1="0%" x2="100%" y2="100%">
      <stop offset="0%" style="stop-color:#4338CA;stop-opacity:1" />
      <stop offset="100%" style="stop-color:#3B82F6;stop-opacity:1" />
    </linearGradient>
    <linearGradient id="accent-gradient" x1="0%" y1="0%" x2="100%" y2="100%">
      <stop offset="0%" style="stop-color:#FFFFFF;stop-opacity:0.8" />
      <stop offset="100%" style="stop-color:#FFFFFF;stop-opacity:0.3" />
    </linearGradient>
    <!-- Subtle reflection gradient -->
    <linearGradient id="reflection" x1="0%" y1="0%" x2="0%" y2="100%">
      <stop offset="0%" style="stop-color:#FFFFFF;stop-opacity:0.1" />
      <stop offset="100%" style="stop-color:#FFFFFF;stop-opacity:0" />
    </linearGradient>
  </defs>
  <!-- Main centered logo -->
  <g transform="translate(250, 250)">
    <!-- Elegant N-shaped 3D structure -->
    <g>
      <!-- Main shape - abstract N representing Nexus -->
      <path d="M-60,-60 L-20,-60 L-20,0 L20,-60 L60,-60 L60,60 L20,60 L20,0 L-20,60 L-60,60 Z"
            fill="url(#premium-gradient)" />
      <!-- Subtle 3D side effect -->
      <path d="M-60,60 L-60,70 L20,70 L20,60 Z" fill="#2D3A8C" />
      <path d="M60,60 L60,70 L20,70 L20,60 Z" fill="#1E3A8A" />
      <!-- Elegant highlight -->
      <line x1="-60" y1="-60" x2="-20" y2="-60" stroke="url(#accent-gradient)" stroke-width="1.5" />
      <line x1="-20" y1="-60" x2="-20" y2="0" stroke="url(#accent-gradient)" stroke-width="1.5" />
      <line x1="-20" y1="0" x2="20" y2="-60" stroke="url(#accent-gradient)" stroke-width="1.5" />
      <line x1="20" y1="-60" x2="60" y2="-60" stroke="url(#accent-gradient)" stroke-width="1.5" />
      <!-- Subtle reflection effect -->
      <rect x="-60" y="-60" width="120" height="120" fill="url(#reflection)" opacity="0.2" />
    </g>
  </g>
  <!-- Minimal elegant surrounding elements -->
  <circle cx="250" cy="250" r="150" fill="none" stroke="#4338CA" stroke-width="0.5" opacity="0.3" />
</svg> 